<svg width="800" height="800" viewBox="0 0 32 32" xmlns="http://www.w3.org/2000/svg"><title>envelope</title><path d="M28 4.25H4A2.754 2.754 0 0 0 1.25 7v18A2.754 2.754 0 0 0 4 27.75h24A2.754 2.754 0 0 0 30.75 25V7A2.754 2.754 0 0 0 28 4.25M4 5.75h24a1.24 1.24 0 0 1 1.18.904l.002.009L16 16.079 2.818 6.663a1.24 1.24 0 0 1 1.181-.913zm24 20.5H4A1.25 1.25 0 0 1 2.75 25V8.457l12.814 9.153c.014.01.032.006.046.015.108.073.24.118.382.123h.001l.005.002H16l.005-.002a.74.74 0 0 0 .386-.125l-.003.002c.014-.009.032-.005.046-.015l12.814-9.153V25a1.25 1.25 0 0 1-1.25 1.25z"/></svg>