<svg width="800" height="800" viewBox="0 0 32 32" xmlns="http://www.w3.org/2000/svg"><title>phone</title><path d="M30.637 23.152a5.2 5.2 0 0 0-.654-1.825l.013.024a.75.75 0 0 0-.521-.353l-.004-.001-8.969-1.424a.75.75 0 0 0-.648.209 6.2 6.2 0 0 0-1.496 2.45l-.012.044c-4.015-1.64-7.139-4.765-8.742-8.674l-.038-.105a6.2 6.2 0 0 0 2.493-1.509.75.75 0 0 0 .21-.652l.001.004-1.423-8.97a.75.75 0 0 0-.353-.524l-.003-.002a5 5 0 0 0-1.723-.626l-.03-.004a3.9 3.9 0 0 0-1.132-.109h.009a6.393 6.393 0 0 0-6.348 6.351v.002c.015 12.761 10.355 23.102 23.115 23.116h.001a6.39 6.39 0 0 0 6.354-6.349v-.002l.001-.084q-.001-.526-.106-1.021l.006.032zm-6.254 5.924C12.45 29.062 2.781 19.392 2.767 7.461V7.46a4.89 4.89 0 0 1 4.855-4.854h.048q.414.001.802.086l-.025-.005c.367.06.695.162 1.002.301l-.025-.01 1.301 8.201a4.8 4.8 0 0 1-2.257 1.051l-.029.004a.75.75 0 0 0-.577.989l-.002-.005c1.773 5.072 5.696 8.994 10.646 10.73l.121.037a.75.75 0 0 0 .628-.064l-.003.002a.75.75 0 0 0 .357-.511l.001-.005a4.8 4.8 0 0 1 1.061-2.296l-.006.007 8.201 1.303c.133.296.238.641.297 1.001l.003.024c.045.212.071.455.071.704l-.001.073v-.004a4.886 4.886 0 0 1-4.852 4.857z"/></svg>