<svg width="800" height="800" viewBox="0 0 32 32" xmlns="http://www.w3.org/2000/svg"><title>pin-dot</title><path d="M15.961 1.25C9.794 1.596 4.847 6.384 4.254 12.449l-.004.051c0 4.65 9.998 16.633 11.138 17.984a.75.75 0 0 0 .572.266h.002a.75.75 0 0 0 .569-.263l.001-.001C17.68 29.134 27.75 17.152 27.75 12.5c-.62-6.132-5.597-10.924-11.758-11.249zm.002 27.582C12.653 24.818 5.75 15.772 5.75 12.5c.601-5.283 4.875-9.398 10.178-9.748l.033-.002c5.361.332 9.666 4.451 10.284 9.698l.005.052c0 3.271-6.955 12.32-10.287 16.332M16 6.929A5.072 5.072 0 1 0 21.072 12 5.077 5.077 0 0 0 16 6.929m0 8.642A3.571 3.571 0 1 1 19.572 12 3.576 3.576 0 0 1 16 15.571"/></svg>